<svg width="787" height="725" viewBox="0 0 787 725" fill="none" xmlns="http://www.w3.org/2000/svg">
<mask id="mask0_5005_217" style="mask-type:luminance" maskUnits="userSpaceOnUse" x="246" y="305" width="240" height="252">
<path d="M485.796 305.676H246.955V556.486H485.796V305.676Z" fill="white"/>
<path d="M368.529 548.649C361.872 548.649 356.195 547.865 351.497 546.297C346.798 544.338 342.687 541.203 339.163 536.892C336.031 532.581 333.094 526.703 330.353 519.257L261.05 314.101H303.924L355.608 482.223C358.74 492.02 362.264 498.682 366.179 502.209C370.486 505.345 378.121 506.912 389.085 506.912C398.48 476.736 407.29 446.561 415.513 416.385C424.126 386.209 432.936 356.23 441.942 326.446C443.116 322.527 444.878 319.588 447.227 317.628C449.577 315.277 453.296 314.101 458.386 314.101H474.244L398.48 548.649H368.529Z" fill="black"/>
</mask>
<g mask="url(#mask0_5005_217)">
<path d="M351.497 546.297L348.485 553.532L348.749 553.641L349.02 553.731L351.497 546.297ZM339.163 536.892L332.83 541.501L332.961 541.681L333.102 541.853L339.163 536.892ZM330.353 519.257L322.935 521.769L322.969 521.867L323.005 521.965L330.353 519.257ZM261.05 314.101V306.264H250.136L253.632 316.612L261.05 314.101ZM303.924 314.101L311.409 311.796L309.708 306.264H303.924V314.101ZM355.608 482.223L348.123 484.527L348.136 484.57L348.149 484.614L355.608 482.223ZM366.18 502.209L360.941 508.037L361.244 508.307L361.573 508.546L366.18 502.209ZM389.085 506.912V514.75H394.847L396.562 509.244L389.085 506.912ZM415.513 416.385L407.983 414.234L407.972 414.277L407.96 414.324L415.513 416.385ZM441.942 326.446L449.44 328.716L449.444 328.698L441.942 326.446ZM447.228 317.628L452.243 323.649L452.513 323.422L452.764 323.171L447.228 317.628ZM474.244 314.101L481.695 316.513L485.008 306.264H474.244V314.101ZM398.481 548.649V556.486H404.181L405.932 551.059L398.481 548.649ZM368.529 548.649V540.811C362.444 540.811 357.652 540.09 353.973 538.863L351.497 546.297L349.02 553.731C354.739 555.64 361.301 556.486 368.529 556.486V548.649ZM351.497 546.297L354.508 539.063C351.106 537.644 348.011 535.34 345.224 531.931L339.163 536.892L333.102 541.853C337.363 547.065 342.491 551.031 348.485 553.532L351.497 546.297ZM339.163 536.892L345.496 532.283C342.94 528.764 340.302 523.611 337.702 516.549L330.353 519.257L323.005 521.965C325.886 529.795 329.121 536.398 332.83 541.501L339.163 536.892ZM330.353 519.257L337.772 516.745L268.469 311.591L261.05 314.101L253.632 316.612L322.935 521.769L330.353 519.257ZM261.05 314.101V321.939H303.924V314.101V306.264H261.05V314.101ZM303.924 314.101L296.44 316.406L348.123 484.527L355.608 482.223L363.092 479.919L311.409 311.796L303.924 314.101ZM355.608 482.223L348.149 484.614C351.372 494.693 355.409 503.052 360.941 508.037L366.18 502.209L371.418 496.382C369.119 494.313 366.108 489.348 363.066 479.832L355.608 482.223ZM366.18 502.209L361.573 508.546C368.041 513.257 377.906 514.75 389.085 514.75V506.912V499.074C378.337 499.074 372.932 497.432 370.785 495.873L366.18 502.209ZM389.085 506.912L396.562 509.244C405.986 478.982 414.82 448.716 423.069 418.446L415.513 416.385L407.96 414.324C399.761 444.405 390.978 474.491 381.609 504.58L389.085 506.912ZM415.513 416.385L423.042 418.537C431.644 388.401 440.446 358.461 449.44 328.716L441.942 326.446L434.448 324.176C425.43 353.999 416.609 384.018 407.983 414.234L415.513 416.385ZM441.942 326.446L449.444 328.698C450.321 325.767 451.409 324.343 452.243 323.649L447.228 317.628L442.216 311.607C438.347 314.832 435.912 319.287 434.444 324.194L441.942 326.446ZM447.228 317.628L452.764 323.171C453.026 322.91 454.291 321.939 458.387 321.939V314.101V306.264C452.302 306.264 446.131 307.644 441.691 312.086L447.228 317.628ZM458.387 314.101V321.939H474.244V314.101V306.264H458.387V314.101ZM474.244 314.101L466.793 311.69L391.031 546.239L398.481 548.649L405.932 551.059L481.695 316.513L474.244 314.101ZM398.481 548.649V540.811H368.529V548.649V556.486H398.481V548.649Z" fill="#008CFF"/>
</g>
<path d="M146.241 532.581C123.532 532.581 104.346 531.013 88.6843 527.878C73.4142 524.743 61.0806 518.865 51.6836 510.243C42.6781 501.622 36.0219 489.669 31.7149 474.385C27.7995 458.709 25.8418 438.527 25.8418 413.838C25.8418 385.622 29.3657 362.5 36.4134 344.473C43.4612 326.446 55.9906 313.122 74.0015 304.5C92.0124 295.878 117.267 291.568 149.765 291.568C174.824 291.568 194.792 294.899 209.671 301.561C224.941 308.223 235.904 318.412 242.56 332.128C249.608 345.845 253.132 363.676 253.132 385.622V419.128H87.5097C87.5097 414.426 88.6843 410.507 91.0336 407.372C93.3828 403.845 97.6898 402.081 103.954 402.081H216.131L215.544 385.034C215.152 360.736 209.867 343.101 199.687 332.128C189.898 321.155 172.67 315.669 148.003 315.669C127.251 315.669 111.002 318.804 99.256 325.074C87.5097 331.345 79.2873 341.534 74.5888 355.642C69.8903 369.75 67.541 388.953 67.541 413.25C67.541 439.115 70.0861 458.905 75.1761 472.622C80.6577 485.946 89.6632 495.155 102.193 500.25C114.722 504.953 131.754 507.304 153.289 507.304C160.728 507.304 169.146 507.108 178.543 506.716C188.332 505.932 198.12 505.149 207.909 504.365C217.698 503.581 226.311 502.601 233.751 501.426C241.582 499.858 247.063 498.291 250.196 496.723V503.777C250.196 507.696 249.021 511.419 246.672 514.946C244.714 518.473 240.407 521.412 233.751 523.763C225.137 527.291 213.391 529.642 198.512 530.818C184.025 531.993 166.601 532.581 146.241 532.581ZM388.71 529.054C382.054 529.054 376.376 528.27 371.678 526.703C366.979 524.743 362.868 521.608 359.344 517.297C356.212 512.986 353.275 507.108 350.535 499.662L281.232 294.507H324.105L375.789 462.628C378.921 472.426 382.445 479.088 386.361 482.615C390.668 485.75 398.304 487.318 409.267 487.318C418.664 457.142 427.474 426.966 435.697 396.791C444.31 366.615 453.12 336.635 462.126 306.851C463.3 302.932 465.062 299.993 467.411 298.034C469.761 295.682 473.48 294.507 478.57 294.507H494.428L418.664 529.054H388.71ZM643.14 532.581C625.129 532.581 608.88 531.209 594.392 528.466C580.297 525.723 567.963 520.236 557.392 512.007C547.212 503.777 539.381 491.628 533.899 475.561C528.418 459.493 525.677 438.331 525.677 412.074C525.677 385.818 528.418 364.655 533.899 348.588C539.381 332.52 547.212 320.372 557.392 312.142C567.963 303.912 580.297 298.426 594.392 295.682C608.88 292.939 625.129 291.568 643.14 291.568C660.759 291.568 676.616 292.939 690.712 295.682C705.199 298.426 717.533 303.912 727.713 312.142C737.893 320.372 745.724 332.52 751.205 348.588C756.687 364.655 759.428 385.818 759.428 412.074C759.428 438.723 756.687 460.081 751.205 476.149C745.724 492.216 737.893 504.365 727.713 512.595C717.533 520.432 705.199 525.723 690.712 528.466C676.616 531.209 660.759 532.581 643.14 532.581ZM643.14 509.655C658.801 509.655 672.114 507.304 683.077 502.601C694.432 497.899 703.045 488.689 708.919 474.973C714.792 461.257 717.728 440.291 717.728 412.074C717.728 383.858 714.792 362.892 708.919 349.176C703.045 335.459 694.432 326.25 683.077 321.547C672.114 316.845 658.801 314.493 643.14 314.493C627.478 314.493 613.97 316.845 602.615 321.547C591.652 326.25 583.038 335.459 576.773 349.176C570.9 362.892 567.963 383.858 567.963 412.074C567.963 440.291 570.9 461.257 576.773 474.973C583.038 488.689 591.652 497.899 602.615 502.601C613.97 507.304 627.478 509.655 643.14 509.655Z" fill="#003C7D"/>
<path d="M87.7799 642.538H91.3417C90.902 647.025 89.7 650.811 87.736 653.891C85.772 656.944 83.1334 659.26 79.821 660.843C76.5379 662.399 72.6683 663.179 68.2125 663.179C64.6652 663.179 61.4408 662.501 58.5387 661.153C55.6656 659.773 53.1887 657.838 51.1072 655.345C49.0552 652.821 47.4721 649.812 46.3582 646.32C45.2443 642.828 44.6875 638.972 44.6875 634.747V625.769C44.6875 621.513 45.2443 617.657 46.3582 614.193C47.4721 610.701 49.0552 607.707 51.1072 605.214C53.1887 602.691 55.6804 600.755 58.5826 599.406C61.514 598.027 64.7826 597.337 68.3883 597.337C72.756 597.337 76.5817 598.113 79.8648 599.669C83.1483 601.225 85.772 603.541 87.736 606.621C89.7 609.674 90.902 613.444 91.3417 617.935H87.7799C87.3402 614.208 86.3288 611.069 84.7458 608.514C83.1922 605.935 81.0524 603.968 78.3261 602.616C75.5998 601.268 72.2873 600.594 68.3883 600.594C65.3104 600.594 62.5399 601.193 60.0775 602.397C57.615 603.572 55.5046 605.273 53.7454 607.503C51.9866 609.705 50.6237 612.343 49.6562 615.427C48.718 618.476 48.249 621.893 48.249 625.679V634.747C48.249 638.474 48.718 641.891 49.6562 644.999C50.5943 648.083 51.9279 650.736 53.6577 652.966C55.3872 655.169 57.4831 656.885 59.9455 658.116C62.4079 659.319 65.1636 659.922 68.2125 659.922C72.1111 659.922 75.4384 659.303 78.1941 658.073C80.9498 656.811 83.1189 654.891 84.7019 652.308C86.3143 649.725 87.3402 646.469 87.7799 642.538ZM109.259 594.696V662.297H105.741V594.696H109.259ZM121.989 639.325V637.651C121.989 634.159 122.487 630.962 123.483 628.058C124.51 625.15 125.946 622.642 127.793 620.529C129.64 618.39 131.838 616.732 134.389 615.556C136.968 614.385 139.826 613.797 142.963 613.797C146.1 613.797 148.958 614.385 151.538 615.556C154.117 616.732 156.331 618.39 158.178 620.529C160.053 622.642 161.49 625.15 162.487 628.058C163.483 630.962 163.982 634.159 163.982 637.651V639.325C163.982 642.816 163.483 646.014 162.487 648.918C161.49 651.822 160.068 654.346 158.221 656.489C156.375 658.602 154.161 660.244 151.582 661.415C149.031 662.591 146.188 663.179 143.051 663.179C139.885 663.179 137.012 662.591 134.433 661.415C131.882 660.244 129.669 658.602 127.793 656.489C125.946 654.346 124.51 651.822 123.483 648.918C122.487 646.014 121.989 642.816 121.989 639.325ZM125.506 637.651V639.325C125.506 642.08 125.887 644.709 126.649 647.202C127.441 649.667 128.584 651.865 130.079 653.805C131.574 655.71 133.407 657.222 135.576 658.335C137.745 659.421 140.237 659.966 143.051 659.966C145.806 659.966 148.269 659.421 150.438 658.335C152.608 657.222 154.425 655.71 155.891 653.805C157.386 651.865 158.515 649.667 159.277 647.202C160.068 644.709 160.464 642.08 160.464 639.325V637.651C160.464 634.951 160.068 632.368 159.277 629.903C158.515 627.438 157.386 625.24 155.891 623.304C154.396 621.368 152.564 619.84 150.395 618.727C148.225 617.582 145.748 617.01 142.963 617.01C140.178 617.01 137.701 617.582 135.532 618.727C133.392 619.84 131.56 621.368 130.036 623.304C128.54 625.24 127.412 627.438 126.649 629.903C125.887 632.368 125.506 634.951 125.506 637.651ZM207.535 651.293V614.678H211.053V662.297H207.579L207.535 651.293ZM208.151 643.196L210.437 643.11C210.437 646.014 210.071 648.683 209.338 651.117C208.634 653.554 207.521 655.682 205.996 657.501C204.501 659.291 202.566 660.683 200.192 661.682C197.817 662.677 194.974 663.179 191.661 663.179C189.346 663.179 187.22 662.854 185.285 662.211C183.38 661.533 181.723 660.479 180.317 659.041C178.939 657.602 177.869 655.725 177.106 653.405C176.374 651.089 176.007 648.287 176.007 644.999V614.678H179.481V645.089C179.481 647.848 179.789 650.18 180.404 652.089C181.049 653.993 181.929 655.521 183.043 656.662C184.157 657.806 185.461 658.645 186.956 659.174C188.451 659.672 190.078 659.922 191.837 659.922C195.941 659.922 199.18 659.127 201.555 657.544C203.959 655.96 205.659 653.891 206.656 651.34C207.652 648.785 208.151 646.073 208.151 643.196ZM258.036 653.056V594.696H261.51V662.297H258.168L258.036 653.056ZM224.354 638.929V638.004C224.354 634.277 224.764 630.93 225.585 627.968C226.405 624.977 227.593 622.438 229.147 620.353C230.7 618.241 232.591 616.63 234.819 615.513C237.076 614.369 239.627 613.797 242.47 613.797C245.138 613.797 247.512 614.224 249.593 615.074C251.675 615.893 253.478 617.085 255.002 618.637C256.526 620.165 257.772 621.968 258.74 624.053C259.736 626.106 260.469 628.379 260.938 630.871V647.288C260.587 649.49 259.927 651.559 258.959 653.495C258.022 655.404 256.776 657.089 255.222 658.555C253.697 659.993 251.865 661.126 249.725 661.945C247.585 662.768 245.138 663.179 242.382 663.179C239.568 663.179 237.047 662.591 234.819 661.415C232.591 660.244 230.7 658.586 229.147 656.442C227.593 654.303 226.405 651.748 225.585 648.785C224.764 645.822 224.354 642.538 224.354 638.929ZM227.915 638.004V638.929C227.915 641.95 228.208 644.737 228.795 647.288C229.41 649.843 230.319 652.057 231.521 653.934C232.752 655.811 234.291 657.281 236.138 658.335C238.014 659.393 240.213 659.922 242.734 659.922C245.959 659.922 248.685 659.335 250.913 658.159C253.141 656.987 254.914 655.431 256.233 653.495C257.582 651.559 258.52 649.416 259.047 647.068V631.534C258.725 630.037 258.212 628.453 257.508 626.78C256.834 625.079 255.882 623.492 254.651 622.026C253.448 620.561 251.88 619.373 249.945 618.46C248.01 617.524 245.636 617.053 242.822 617.053C240.271 617.053 238.058 617.582 236.182 618.637C234.335 619.695 232.796 621.16 231.565 623.038C230.334 624.919 229.41 627.133 228.795 629.684C228.208 632.239 227.915 635.01 227.915 638.004ZM305.964 598.215V662.297H302.402V598.215H305.964ZM327.663 624.844V662.297H324.19V614.678H327.619L327.663 624.844ZM327.004 634.834L325.289 632.811C325.553 630.288 326.168 627.881 327.136 625.593C328.132 623.304 329.437 621.278 331.049 619.518C332.691 617.759 334.596 616.364 336.766 615.337C338.964 614.31 341.383 613.797 344.021 613.797C346.395 613.797 348.521 614.134 350.397 614.808C352.273 615.454 353.856 616.481 355.146 617.888C356.465 619.299 357.462 621.117 358.136 623.347C358.81 625.55 359.147 628.234 359.147 631.401V662.297H355.674V631.401C355.674 627.646 355.161 624.742 354.134 622.689C353.108 620.604 351.672 619.138 349.825 618.288C348.007 617.434 345.882 617.01 343.449 617.01C340.635 617.01 338.202 617.641 336.15 618.903C334.127 620.134 332.456 621.705 331.137 623.61C329.818 625.491 328.807 627.438 328.103 629.465C327.429 631.491 327.062 633.278 327.004 634.834ZM391.4 614.678V617.845H368.622V614.678H391.4ZM377.417 602.091H380.935V650.811C380.935 653.362 381.242 655.298 381.858 656.619C382.503 657.912 383.338 658.79 384.364 659.26C385.42 659.699 386.548 659.922 387.75 659.922C388.6 659.922 389.377 659.875 390.081 659.789C390.814 659.699 391.546 659.597 392.278 659.48L392.588 662.56C391.942 662.768 391.107 662.913 390.081 663.003C389.054 663.12 388.146 663.179 387.354 663.179C385.361 663.179 383.617 662.811 382.122 662.078C380.626 661.345 379.469 660.083 378.648 658.292C377.827 656.474 377.417 653.977 377.417 650.811V602.091ZM421.718 663.179C418.727 663.179 415.959 662.607 413.406 661.463C410.857 660.287 408.629 658.66 406.722 656.576C404.819 654.463 403.324 651.971 402.239 649.094C401.182 646.218 400.653 643.063 400.653 639.63V637.694C400.653 634.144 401.182 630.919 402.239 628.011C403.324 625.079 404.788 622.556 406.636 620.443C408.48 618.3 410.606 616.658 413.011 615.513C415.446 614.369 418.038 613.797 420.794 613.797C423.578 613.797 426.1 614.31 428.359 615.337C430.614 616.364 432.549 617.802 434.162 619.652C435.775 621.497 437.004 623.7 437.854 626.251C438.704 628.806 439.13 631.62 439.13 634.7V637.651H402.854V634.438H435.657V633.865C435.626 630.871 435.011 628.101 433.809 625.55C432.639 622.994 430.951 620.941 428.754 619.385C426.554 617.802 423.903 617.01 420.794 617.01C418.304 617.01 416.029 617.539 413.978 618.594C411.957 619.652 410.211 621.117 408.747 622.994C407.278 624.844 406.151 627.031 405.36 629.555C404.569 632.047 404.173 634.759 404.173 637.694V639.63C404.173 642.448 404.612 645.089 405.493 647.554C406.37 650.019 407.603 652.19 409.185 654.068C410.767 655.917 412.631 657.367 414.769 658.425C416.91 659.48 419.256 660.009 421.805 660.009C424.561 660.009 427.083 659.523 429.369 658.555C431.656 657.587 433.735 655.886 435.614 653.452L437.901 655.169C436.844 656.693 435.567 658.057 434.076 659.26C432.58 660.463 430.806 661.416 428.754 662.121C426.73 662.826 424.385 663.179 421.718 663.179ZM454.98 594.696V662.297H451.464V594.696H454.98ZM475.14 594.696V662.297H471.624V594.696H475.14ZM495.301 614.678V662.297H491.785V614.678H495.301ZM490.685 600.241C490.685 599.45 490.947 598.775 491.476 598.215C492.036 597.631 492.736 597.337 493.586 597.337C494.408 597.337 495.097 597.631 495.653 598.215C496.209 598.775 496.491 599.45 496.491 600.241C496.491 601.033 496.209 601.707 495.653 602.267C495.097 602.792 494.408 603.059 493.586 603.059C492.736 603.059 492.036 602.792 491.476 602.267C490.947 601.707 490.685 601.033 490.685 600.241ZM542.991 614.678H546.374V661.549C546.374 665.628 545.626 669.148 544.134 672.11C542.638 675.104 540.512 677.393 537.756 678.976C535.031 680.591 531.761 681.398 527.952 681.398C525.783 681.398 523.7 681.077 521.707 680.43C519.741 679.783 517.924 678.847 516.252 677.612C514.612 676.409 513.191 674.987 511.988 673.345L514.142 671.142C516.021 673.462 518.057 675.222 520.254 676.425C522.482 677.628 524.992 678.228 527.776 678.228C531.057 678.228 533.813 677.554 536.041 676.206C538.269 674.853 539.956 672.933 541.1 670.441C542.243 667.976 542.815 665.041 542.815 661.639V625.15L542.991 614.678ZM509.173 638.929V638.004C509.173 634.277 509.584 630.93 510.407 627.968C511.225 624.977 512.415 622.438 513.966 620.353C515.52 618.241 517.411 616.63 519.639 615.513C521.898 614.369 524.447 613.797 527.29 613.797C529.96 613.797 532.317 614.224 534.369 615.074C536.452 615.893 538.253 617.085 539.78 618.637C541.335 620.165 542.591 621.968 543.563 624.053C544.557 626.106 545.305 628.379 545.802 630.871V647.288C545.422 649.49 544.761 651.559 543.825 653.495C542.885 655.404 541.64 657.089 540.086 658.555C538.535 659.993 536.687 661.126 534.545 661.945C532.407 662.768 529.96 663.179 527.204 663.179C524.389 663.179 521.867 662.591 519.639 661.415C517.411 660.244 515.52 658.586 513.966 656.442C512.415 654.303 511.225 651.748 510.407 648.785C509.584 645.822 509.173 642.538 509.173 638.929ZM512.736 638.004V638.929C512.736 641.95 513.03 644.737 513.617 647.288C514.232 649.843 515.14 652.057 516.342 653.934C517.572 655.811 519.126 657.281 521.002 658.335C522.877 659.393 525.062 659.922 527.556 659.922C530.779 659.922 533.492 659.335 535.689 658.159C537.889 656.987 539.647 655.431 540.967 653.495C542.286 651.559 543.21 649.416 543.735 647.068V631.534C543.414 630.037 542.916 628.453 542.243 626.78C541.566 625.079 540.614 623.492 539.385 622.026C538.183 620.561 536.628 619.373 534.721 618.46C532.819 617.524 530.458 617.053 527.642 617.053C525.121 617.053 522.909 617.582 521.002 618.637C519.126 619.695 517.572 621.16 516.342 623.038C515.14 624.919 514.232 627.133 513.617 629.684C513.03 632.239 512.736 635.01 512.736 638.004ZM579.506 663.179C576.519 663.179 573.746 662.607 571.198 661.463C568.645 660.287 566.417 658.66 564.514 656.576C562.607 654.463 561.111 651.971 560.027 649.094C558.974 646.218 558.445 643.063 558.445 639.63V637.694C558.445 634.144 558.974 630.919 560.027 628.011C561.111 625.079 562.576 622.556 564.424 620.443C566.272 618.3 568.398 616.658 570.802 615.513C573.234 614.369 575.83 613.797 578.582 613.797C581.37 613.797 583.891 614.31 586.147 615.337C588.406 616.364 590.34 617.802 591.949 619.652C593.562 621.497 594.796 623.7 595.646 626.251C596.495 628.806 596.918 631.62 596.918 634.7V637.651H560.642V634.438H593.445V633.865C593.418 630.871 592.803 628.101 591.601 625.55C590.426 622.994 588.743 620.941 586.542 619.385C584.346 617.802 581.691 617.01 578.582 617.01C576.092 617.01 573.821 617.539 571.769 618.594C569.745 619.652 568.003 621.117 566.534 622.994C565.07 624.844 563.942 627.031 563.147 629.555C562.357 632.047 561.961 634.759 561.961 637.694V639.63C561.961 642.448 562.403 645.089 563.281 647.554C564.162 650.019 565.391 652.19 566.977 654.068C568.559 655.917 570.418 657.367 572.56 658.425C574.698 659.48 577.043 660.009 579.596 660.009C582.349 660.009 584.87 659.523 587.157 658.555C589.443 657.587 591.526 655.886 593.402 653.452L595.689 655.169C594.631 656.693 593.359 658.057 591.863 659.26C590.368 660.463 588.594 661.416 586.542 662.121C584.518 662.826 582.176 663.179 579.506 663.179ZM612.157 624.844V662.297H608.68V614.678H612.11L612.157 624.844ZM611.495 634.834L609.78 632.811C610.046 630.288 610.661 627.881 611.628 625.593C612.623 623.304 613.931 621.278 615.54 619.518C617.184 617.759 619.087 616.364 621.256 615.337C623.457 614.31 625.876 613.797 628.511 613.797C630.888 613.797 633.014 614.134 634.89 614.808C636.765 615.454 638.347 616.481 639.639 617.888C640.959 619.299 641.953 621.117 642.627 623.347C643.304 625.55 643.641 628.234 643.641 631.401V662.297H640.164V631.401C640.164 627.646 639.651 624.742 638.625 622.689C637.599 620.604 636.162 619.138 634.318 618.288C632.501 617.434 630.375 617.01 627.94 617.01C625.129 617.01 622.693 617.641 620.641 618.903C618.617 620.134 616.949 621.705 615.63 623.61C614.31 625.491 613.3 627.438 612.595 629.465C611.922 631.491 611.554 633.278 611.495 634.834ZM675.716 659.966C678.089 659.966 680.332 659.523 682.443 658.645C684.584 657.763 686.358 656.431 687.764 654.64C689.201 652.821 690.007 650.517 690.183 647.731H693.613C693.464 650.897 692.556 653.64 690.888 655.96C689.216 658.249 687.059 660.024 684.424 661.286C681.785 662.548 678.883 663.179 675.716 663.179C672.548 663.179 669.721 662.591 667.231 661.415C664.768 660.244 662.701 658.586 661.029 656.442C659.357 654.303 658.085 651.795 657.204 648.918C656.354 646.014 655.927 642.844 655.927 639.411V637.561C655.927 634.128 656.354 630.977 657.204 628.101C658.085 625.197 659.357 622.673 661.029 620.529C662.701 618.39 664.753 616.732 667.184 615.556C669.647 614.385 672.462 613.797 675.63 613.797C678.825 613.797 681.753 614.455 684.424 615.776C687.09 617.069 689.244 618.962 690.888 621.454C692.556 623.919 693.464 626.941 693.613 630.523H690.183C690.035 627.587 689.287 625.122 687.94 623.128C686.593 621.133 684.831 619.62 682.662 618.594C680.493 617.539 678.147 617.01 675.63 617.01C672.814 617.01 670.379 617.551 668.327 618.637C666.276 619.722 664.592 621.219 663.273 623.128C661.953 625.005 660.986 627.192 660.371 629.684C659.753 632.149 659.447 634.775 659.447 637.561V639.411C659.447 642.229 659.753 644.882 660.371 647.378C660.986 649.843 661.953 652.014 663.273 653.891C664.592 655.768 666.276 657.25 668.327 658.335C670.41 659.421 672.873 659.966 675.716 659.966ZM723.535 663.179C720.544 663.179 717.775 662.607 715.222 661.463C712.673 660.287 710.446 658.66 708.539 656.576C706.636 654.463 705.14 651.971 704.056 649.094C702.999 646.218 702.474 643.063 702.474 639.63V637.694C702.474 634.144 702.999 630.919 704.056 628.011C705.14 625.079 706.605 622.556 708.453 620.443C710.301 618.3 712.423 616.658 714.827 615.513C717.262 614.369 719.854 613.797 722.611 613.797C725.395 613.797 727.916 614.31 730.175 615.337C732.431 616.364 734.365 617.802 735.978 619.652C737.591 621.497 738.821 623.7 739.674 626.251C740.524 628.806 740.947 631.62 740.947 634.7V637.651H704.67V634.438H737.474V633.865C737.446 630.871 736.828 628.101 735.626 625.55C734.455 622.994 732.767 620.941 730.571 619.385C728.37 617.802 725.72 617.01 722.611 617.01C720.121 617.01 717.846 617.539 715.794 618.594C713.774 619.652 712.027 621.117 710.563 622.994C709.099 624.844 707.967 627.031 707.176 629.555C706.385 632.047 705.99 634.759 705.99 637.694V639.63C705.99 642.448 706.428 645.089 707.309 647.554C708.19 650.019 709.42 652.19 711.002 654.068C712.587 655.917 714.447 657.367 716.589 658.425C718.727 659.48 721.072 660.009 723.621 660.009C726.378 660.009 728.899 659.523 731.186 658.555C733.472 657.587 735.555 655.886 737.431 653.452L739.717 655.169C738.66 656.693 737.388 658.057 735.892 659.26C734.396 660.463 732.623 661.416 730.571 662.121C728.547 662.826 726.201 663.179 723.535 663.179Z" fill="#003C7D"/>
</svg>
